<svg width="1440" height="602" viewBox="0 0 1440 602" fill="none" xmlns="http://www.w3.org/2000/svg">
<path d="M488.925 345.043L307.59 181.027C209.425 92.2382 53.1178 125.764 0 247V602H1440C1440 489.323 1345.32 399.79 1232.82 406.076L1173.94 409.366C1120.49 412.352 1067.8 395.721 1025.75 362.598L991.798 335.855C926.767 284.628 834.187 288.101 773.177 344.058C692.882 417.702 569.729 418.129 488.925 345.043Z" fill="url(#paint0_linear)"/>
<path d="M43.3152 346.258L0 399.5V602.5H1440V535L1317.03 549.054C1276.02 553.74 1236.98 530.288 1221.87 491.886C1202.31 442.191 1144.4 419.888 1096.56 443.622L919.138 531.632C888.343 546.909 851.315 541.596 826.057 518.277L767.153 463.895C679.349 382.832 545.225 378.895 452.818 454.669C386.762 508.835 286.86 478.403 262.22 396.608L259.955 389.088C231.042 293.106 106.577 268.499 43.3152 346.258Z" fill="url(#paint1_linear)"/>
<defs>
<linearGradient id="paint0_linear" x1="855" y1="79.5001" x2="693" y2="603" gradientUnits="userSpaceOnUse">
<stop offset="0.549613" stop-color="#DD5306"/>
<stop offset="1" stop-color="#9E3900"/>
</linearGradient>
<linearGradient id="paint1_linear" x1="719" y1="84.9999" x2="719" y2="609" gradientUnits="userSpaceOnUse">
<stop stop-color="#EE7C13"/>
<stop offset="1" stop-color="#DD5306"/>
</linearGradient>
</defs>
</svg>
