<?xml version="1.0" encoding="utf-8"?>
<!DOCTYPE svg PUBLIC "-//W3C//DTD SVG 20010904//EN" "http://www.w3.org/TR/2001/REC-SVG-20010904/DTD/svg10.dtd">
<svg version="1.0" xmlns="http://www.w3.org/2000/svg" width="200px" height="100px" viewBox="0 0 200 100" preserveAspectRatio="xMidYMid meet">
 <g fill="#000000">
  <path d="M4 51.5 l0 -36.5 27 0 27 0 0 10 0 10 6.3 0.1 6.2 0 14.8 16.4 14.7 16.4 0 3.5 0 3.6 -7.3 0 -7.3 0 -13.4 -14.9 -13.5 -14.9 -0.3 21.4 -0.2 21.4 -27 0 -27 0 0 -36.5z"/>
  <path d="M102 55 l0 -20 23 0 23 0 0 20 0 20 -23 0 -23 0 0 -20z m33 -0.5 l0 -7.6 -10.2 0.3 -10.3 0.3 -0.3 7.3 -0.3 7.2 10.6 0 10.5 0 0 -7.5z"/>
  <path d="M149 48.5 l0 -26.5 6.5 0 6.5 0 0 6.5 0 6.5 16.5 0 16.5 0 0 20 0 20 -23 0 -23 0 0 -26.5z m33 6 l0 -7.5 -10 0 -10 0 0 7.5 0 7.5 10 0 10 0 0 -7.5z"/>
 </g>
 <g fill="#ffffff">
  <path d="M0 50 l0 -50 100 0 100 0 0 50 0 50 -100 0 -100 0 0 -50z m55 1.5 l0 -33.5 -24 0 -24 0 0 33.5 0 33.5 24 0 24 0 0 -33.5z m41.8 19.7 c-0.1 -0.5 -6.8 -8.1 -14.8 -17 l-14.5 -16.1 -4.8 -0.1 -4.9 0 3.9 4.3 c2.1 2.4 9 10.1 15.3 17 l11.5 12.7 4.3 0 4.4 0 -0.4 -0.8z m48.2 -16.2 l0 -17 -20 0 -20 0 0 17 0 17 20 0 20 0 0 -17z m47 0 l0 -17 -16.5 0 -16.5 0 0 -6.5 0 -6.5 -3.5 0 -3.5 0 0 23.5 0 23.5 20 0 20 0 0 -17z"/>
  <path d="M11 48 l0 -23 2.5 0 2.5 0 0 7 0 7 17 0 17 0 0 16 0 16 -19.5 0 -19.5 0 0 -23z m33 7 l0 -10 -13.5 0 -13.5 0 0 10 0 10 13.5 0 13.5 0 0 -10z"/>
  <path d="M111.2 54.8 l0.3 -10.3 13.3 -0.3 13.2 -0.3 0 10.6 0 10.5 -13.5 0 -13.6 0 0.3 -10.2z"/>
  <path d="M159 54.5 l0 -10.6 13.1 0.3 13.1 0.3 0.1 10.3 0.2 10.2 -13.2 0 -13.3 0 0 -10.5z"/>
 </g>
</svg>